# xmcd
#
# Track frame offsets:
#	152
#	18557
#	38551
#	59339
#	75507
#	97826
#	118450
#	143582
#	164461
#	180593
#
# Disc length: 2753 seconds
#
# Revision: 0
# Processed by: cddbd v1.5.2PL0 Copyright (c) Steve Scherf et al.
# Submitted via: EasyCDDAExtractor 16.0.9.1
#
DISCID=790abf0a
DTITLE=İbrahim Sadri - Aşk 29 Harf
DYEAR=2009
DGENRE=Şiir
TTITLE0=Bir Yastıkta
TTITLE1=Öylesine Sevmiştim
TTITLE2=Aşk
TTITLE3=Sensiz Yarım
TTITLE4=Yağmur Tanesi
TTITLE5=Bir Adın Kalmalı
TTITLE6=İstanbula Kar Yağıyordu
TTITLE7=Nan Gibi
TTITLE8=Sevda Sokağı
TTITLE9=Memetçik Memik
EXTD=
EXTT0=
EXTT1=
EXTT2=
EXTT3=
EXTT4=
EXTT5=
EXTT6=
EXTT7=
EXTT8=
EXTT9=
PLAYORDER=
